<svg id="Gruppe_424" data-name="Gruppe 424" xmlns="http://www.w3.org/2000/svg" width="38.148" height="38.148" viewBox="0 0 38.148 38.148">
  <rect id="Rechteck_393" data-name="Rechteck 393" width="38" height="38" transform="translate(0.074 0.074)" fill="rgba(255,255,255,0)"/>
  <path id="Rechteck_643" data-name="Rechteck 643" d="M3.427,0H34.721a3.427,3.427,0,0,1,3.427,3.427V34.721a3.427,3.427,0,0,1-3.427,3.427H3.427A3.427,3.427,0,0,1,0,34.721V3.427A3.427,3.427,0,0,1,3.427,0Z" fill="rgba(145,71,255,0.21)"/>
  <g id="mod_deact" transform="translate(5.067 4.992)">
    <path id="Vereinigungsmenge_1" data-name="Vereinigungsmenge 1" d="M7.877,23.488l-4.66,4.66-1.8-1.8.006-.006L0,24.917l4.683-4.686L0,15.547l3.062-3.064,3.063,3.064L17.717,0H27.99l0,0V10.521L12.535,22.055,15.581,25.1l-3.045,3.046Z" fill="#9147ff"/>
  </g>
</svg>
