<svg xmlns="http://www.w3.org/2000/svg" width="25.05" height="25.05" viewBox="0 0 25.05 25.05">
  <g id="Gruppe_607" data-name="Gruppe 607" transform="translate(-770 -1214)">
    <g id="Gruppe_424" data-name="Gruppe 424" transform="translate(770 1214)">
      <rect id="Rechteck_393" data-name="Rechteck 393" width="24" height="24" transform="translate(0.525 0.525)" fill="rgba(255,255,255,0)"/>
      <path id="Rechteck_643" data-name="Rechteck 643" d="M2.251,0H22.8A2.251,2.251,0,0,1,25.05,2.251V22.8A2.251,2.251,0,0,1,22.8,25.05H2.251A2.251,2.251,0,0,1,0,22.8V2.251A2.251,2.251,0,0,1,2.251,0Z" fill="rgba(145,71,255,0.21)"/>
    </g>
    <g id="settings_ethernet_black_24dp" transform="translate(772.52 1216.545)">
      <path id="Pfad_3652" data-name="Pfad 3652" d="M0,0H19.961V19.961H0Z" fill="none"/>
      <path id="Pfad_3653" data-name="Pfad 3653" d="M6.582,6.506,5.305,5.48.82,10.7l4.485,5.225L6.582,14.9,2.976,10.7Zm-.638,5H7.6V9.9H5.944Zm8.291-1.6H12.576v1.6h1.658Zm-4.974,1.6h1.658V9.9H9.26ZM14.872,5.48,13.6,6.506,17.2,10.7,13.6,14.9l1.277,1.026L19.358,10.7Z" transform="translate(-0.108 -0.724)" fill="#9147ff"/>
    </g>
  </g>
</svg>
