<svg xmlns="http://www.w3.org/2000/svg" width="25.05" height="25.05" viewBox="0 0 25.05 25.05">
  <g id="Gruppe_719" data-name="Gruppe 719" transform="translate(-770 -1214)">
    <g id="Gruppe_424" data-name="Gruppe 424" transform="translate(770 1214)" opacity="0.21">
      <path id="Rechteck_643" data-name="Rechteck 643" d="M2.251,0H22.8A2.251,2.251,0,0,1,25.05,2.251V22.8A2.251,2.251,0,0,1,22.8,25.05H2.251A2.251,2.251,0,0,1,0,22.8V2.251A2.251,2.251,0,0,1,2.251,0Z" fill="#9147ff"/>
    </g>
    <g id="engineering_black_24dp_1_" data-name="engineering_black_24dp (1)" transform="translate(772 1216.211)">
      <g id="Gruppe_743" data-name="Gruppe 743">
        <rect id="Rechteck_612" data-name="Rechteck 612" width="21" height="21" transform="translate(0.5 0.499)" fill="none"/>
        <rect id="Rechteck_613" data-name="Rechteck 613" width="21" height="21" transform="translate(0.5 0.499)" fill="none"/>
      </g>
      <g id="Gruppe_745" data-name="Gruppe 745" transform="translate(0.875 2.625)">
        <g id="Gruppe_744" data-name="Gruppe 744">
          <path id="Pfad_3710" data-name="Pfad 3710" d="M8,15c-2.336,0-7,1.173-7,3.5v.875a.878.878,0,0,0,.875.875h12.25A.878.878,0,0,0,15,19.375V18.5C15,16.173,10.336,15,8,15Z" transform="translate(-1 -4.5)" fill="#9147ff"/>
          <path id="Pfad_3711" data-name="Pfad 3711" d="M4.679,8.375h7.464a.429.429,0,0,0,.429-.429V7.929a.429.429,0,0,0-.429-.429h-.236a3.5,3.5,0,0,0-1.75-3.019v.831a.438.438,0,0,1-.875,0V4.122A3.579,3.579,0,0,0,8.406,4a3.579,3.579,0,0,0-.875.122v1.19a.438.438,0,0,1-.875,0V4.481A3.5,3.5,0,0,0,4.906,7.5H4.679a.429.429,0,0,0-.429.429v.026A.428.428,0,0,0,4.679,8.375Z" transform="translate(-1.406 -3.125)" fill="#9147ff"/>
          <path id="Pfad_3712" data-name="Pfad 3712" d="M8.517,12.625A3.5,3.5,0,0,0,11.895,10H5.14A3.5,3.5,0,0,0,8.517,12.625Z" transform="translate(-1.517 -3.875)" fill="#9147ff"/>
          <path id="Pfad_3713" data-name="Pfad 3713" d="M21.244,5.826l.814-.726L21.4,3.963,20.36,4.3a1.735,1.735,0,0,0-.411-.236L19.73,3H18.417L18.2,4.068a1.988,1.988,0,0,0-.42.236l-1.032-.341L16.09,5.1l.814.726a1.978,1.978,0,0,0,0,.455l-.814.744.656,1.137L17.8,7.83a2.011,2.011,0,0,0,.376.219l.245,1.076H19.73l.236-1.068a2.083,2.083,0,0,0,.385-.219l1.041.332.656-1.137-.814-.744A2.074,2.074,0,0,0,21.244,5.826Zm-2.17,1.33a1.094,1.094,0,1,1,1.094-1.094A1.094,1.094,0,0,1,19.074,7.156Z" transform="translate(-2.886 -3)" fill="#9147ff"/>
          <path id="Pfad_3714" data-name="Pfad 3714" d="M18.859,10.691l-.744.245a1.181,1.181,0,0,0-.289-.166L17.669,10h-.936l-.158.761a1.63,1.63,0,0,0-.3.166l-.735-.245-.472.814.577.516a2,2,0,0,0,0,.324l-.577.534.472.814.753-.236a1.683,1.683,0,0,0,.271.158l.157.77h.936l.166-.761a1.764,1.764,0,0,0,.28-.158l.744.236.473-.814-.578-.534a2,2,0,0,0,0-.324l.578-.516ZM17.2,12.966a.779.779,0,1,1,.779-.779A.78.78,0,0,1,17.2,12.966Z" transform="translate(-2.759 -3.875)" fill="#9147ff"/>
        </g>
      </g>
    </g>
  </g>
</svg>
