<svg xmlns="http://www.w3.org/2000/svg" width="36.373" height="36.373" viewBox="0 0 36.373 36.373">
  <g id="Gruppe_635" data-name="Gruppe 635" transform="translate(-0.041 0.126)">
    <g id="Gruppe_424" data-name="Gruppe 424" transform="translate(0.041 -0.126)">
      <rect id="Rechteck_393" data-name="Rechteck 393" width="34.848" height="34.848" transform="translate(0.762 0.762)" fill="rgba(255,255,255,0)"/>
      <path id="Rechteck_643" data-name="Rechteck 643" d="M3.268,0H33.1a3.268,3.268,0,0,1,3.268,3.268V33.1A3.268,3.268,0,0,1,33.1,36.373H3.268A3.268,3.268,0,0,1,0,33.1V3.268A3.268,3.268,0,0,1,3.268,0Z" fill="rgba(145,71,255,0.21)"/>
    </g>
    <g id="drive_file_rename_outline_black_24dp_1_" data-name="drive_file_rename_outline_black_24dp (1)" transform="translate(1.46 1.293)">
      <path id="Pfad_3694" data-name="Pfad 3694" d="M0,0H33.162V33.162H0Z" fill="none"/>
      <path id="Pfad_3695" data-name="Pfad 3695" d="M24.293,6.485,22.621,4.813a2.769,2.769,0,0,0-3.91,0l-3.7,3.7L3,20.524v5.582H8.582L20.659,14.03,24.293,10.4A2.744,2.744,0,0,0,24.293,6.485ZM14.054,26.106l5.527-5.527h8.291v5.527Z" transform="translate(1.145 1.529)" fill="#9147ff"/>
    </g>
  </g>
</svg>
