<svg xmlns="http://www.w3.org/2000/svg" width="36.373" height="36.373" viewBox="0 0 36.373 36.373">
  <g id="Gruppe_640" data-name="Gruppe 640" transform="translate(-0.041 -0.021)">
    <g id="Gruppe_424" data-name="Gruppe 424" transform="translate(0.041 0.021)">
      <rect id="Rechteck_393" data-name="Rechteck 393" width="34.848" height="34.848" transform="translate(0.762 0.762)" fill="rgba(255,255,255,0)"/>
      <path id="Rechteck_643" data-name="Rechteck 643" d="M3.268,0H33.1a3.268,3.268,0,0,1,3.268,3.268V33.1A3.268,3.268,0,0,1,33.1,36.373H3.268A3.268,3.268,0,0,1,0,33.1V3.268A3.268,3.268,0,0,1,3.268,0Z" fill="rgba(145,71,255,0.21)"/>
    </g>
    <g id="miscellaneous_services_black_24dp" transform="translate(2.542 2.522)">
      <g id="Gruppe_644" data-name="Gruppe 644">
        <rect id="Rechteck_568" data-name="Rechteck 568" width="30" height="30" transform="translate(0.499 0.499)" fill="none"/>
      </g>
      <g id="Gruppe_646" data-name="Gruppe 646" transform="translate(2.585 2.583)">
        <g id="Gruppe_645" data-name="Gruppe 645">
          <path id="Pfad_3696" data-name="Pfad 3696" d="M17.718,17.124,19.526,14a.456.456,0,0,0-.1-.581l-1.912-1.5a6.537,6.537,0,0,0,.065-.878,6.894,6.894,0,0,0-.065-.891l1.912-1.5a.456.456,0,0,0,.1-.581L17.718,4.945a.457.457,0,0,0-.555-.194l-2.247.9a6.641,6.641,0,0,0-1.524-.891l-.336-2.389A.47.47,0,0,0,12.6,2H8.987a.469.469,0,0,0-.452.387L8.2,4.777a6.927,6.927,0,0,0-1.524.891l-2.247-.9a.457.457,0,0,0-.555.194L2.064,8.083a.456.456,0,0,0,.1.581l1.912,1.5a6.537,6.537,0,0,0-.065.878,6.894,6.894,0,0,0,.065.891l-1.912,1.5a.456.456,0,0,0-.1.581l1.808,3.126a.457.457,0,0,0,.555.194l2.247-.9a6.642,6.642,0,0,0,1.524.891l.336,2.389a.47.47,0,0,0,.452.375H12.6a.469.469,0,0,0,.452-.387l.336-2.389a6.927,6.927,0,0,0,1.524-.891l2.247.9A.457.457,0,0,0,17.718,17.124Zm-6.923-3.5a2.583,2.583,0,1,1,2.583-2.583A2.591,2.591,0,0,1,10.8,13.624Z" transform="translate(-2.001 -2)" fill="#9147ff"/>
          <path id="Pfad_3697" data-name="Pfad 3697" d="M24.443,20.323l-1.24-.956a4.04,4.04,0,0,0,.052-.568,2.737,2.737,0,0,0-.052-.568l1.227-.956a.3.3,0,0,0,.065-.375l-1.162-2a.3.3,0,0,0-.362-.129l-1.434.581a3.9,3.9,0,0,0-.982-.568l-.22-1.524A.279.279,0,0,0,20.064,13H17.752a.281.281,0,0,0-.284.245l-.22,1.524a4.631,4.631,0,0,0-.982.568l-1.434-.581a.3.3,0,0,0-.362.129l-1.162,2a.3.3,0,0,0,.065.375l1.227.956a4.187,4.187,0,0,0,0,1.137l-1.227.956a.3.3,0,0,0-.065.375l1.162,2a.3.3,0,0,0,.362.129l1.434-.581a3.9,3.9,0,0,0,.982.568l.22,1.524a.29.29,0,0,0,.284.245h2.312a.281.281,0,0,0,.284-.245l.22-1.524a4.243,4.243,0,0,0,.969-.568l1.447.581a.3.3,0,0,0,.362-.129l1.162-2A.281.281,0,0,0,24.443,20.323ZM18.9,20.53a1.744,1.744,0,1,1,1.744-1.744A1.745,1.745,0,0,1,18.9,20.53Z" transform="translate(1.284 1.207)" fill="#9147ff"/>
        </g>
      </g>
    </g>
  </g>
</svg>
