<svg xmlns="http://www.w3.org/2000/svg" width="25.05" height="25.05" viewBox="0 0 25.05 25.05">
  <g id="Gruppe_762" data-name="Gruppe 762" transform="translate(-770 -1214)">
    <g id="Gruppe_424" data-name="Gruppe 424" transform="translate(770 1214)">
      <rect id="Rechteck_393" data-name="Rechteck 393" width="24" height="24" transform="translate(0.525 0.525)" fill="rgba(255,255,255,0)"/>
      <path id="Rechteck_643" data-name="Rechteck 643" d="M2.251,0H22.8A2.251,2.251,0,0,1,25.05,2.251V22.8A2.251,2.251,0,0,1,22.8,25.05H2.251A2.251,2.251,0,0,1,0,22.8V2.251A2.251,2.251,0,0,1,2.251,0Z" fill="rgba(145,71,255,0.21)"/>
    </g>
    <g id="cookie_black_24dp" transform="translate(771.736 1215.302)">
      <g id="Gruppe_763" data-name="Gruppe 763" transform="translate(-0.158 0.379)">
        <rect id="Rechteck_616" data-name="Rechteck 616" width="21" height="21" transform="translate(0.422 0.422)" fill="none"/>
      </g>
      <g id="Gruppe_765" data-name="Gruppe 765" transform="translate(1.927 2.452)">
        <g id="Gruppe_764" data-name="Gruppe 764">
          <path id="Pfad_3734" data-name="Pfad 3734" d="M19.63,9.941a2.649,2.649,0,0,1-2.368-3.729,3.52,3.52,0,0,1-4.586-4.03A8.841,8.841,0,1,0,19.63,9.941ZM7.744,13.485A1.326,1.326,0,1,1,9.07,12.159,1.324,1.324,0,0,1,7.744,13.485ZM9.511,9.066a1.326,1.326,0,1,1,1.326-1.326A1.324,1.324,0,0,1,9.511,9.066Zm3.977,5.3a.884.884,0,1,1,.884-.884A.886.886,0,0,1,13.488,14.368Z" transform="translate(-2 -1.972)" fill="#9147ff"/>
        </g>
      </g>
    </g>
  </g>
</svg>
