<svg xmlns="http://www.w3.org/2000/svg" width="36.373" height="36.373" viewBox="0 0 36.373 36.373">
  <g id="Gruppe_742" data-name="Gruppe 742" transform="translate(0 0)">
    <g id="Gruppe_424" data-name="Gruppe 424" transform="translate(0 0)">
      <rect id="Rechteck_393" data-name="Rechteck 393" width="34.848" height="34.848" transform="translate(0.762 0.762)" fill="rgba(255,255,255,0)"/>
      <path id="Rechteck_643" data-name="Rechteck 643" d="M3.268,0H33.1a3.268,3.268,0,0,1,3.268,3.268V33.1A3.268,3.268,0,0,1,33.1,36.373H3.268A3.268,3.268,0,0,1,0,33.1V3.268A3.268,3.268,0,0,1,3.268,0Z" fill="rgba(145,71,255,0.21)"/>
    </g>
    <g id="celebration_black_24dp_1_" data-name="celebration_black_24dp (1)" transform="translate(4.922 4.155)">
      <g id="Gruppe_752" data-name="Gruppe 752">
        <rect id="Rechteck_615" data-name="Rechteck 615" width="28" height="28" transform="translate(0.119 0.119)" fill="none"/>
      </g>
      <g id="Gruppe_754" data-name="Gruppe 754" transform="translate(1.447 2.036)">
        <g id="Gruppe_753" data-name="Gruppe 753">
          <path id="Pfad_3719" data-name="Pfad 3719" d="M2,24.472l16.472-5.883L7.883,8Z" transform="translate(-2 -0.305)" fill="#9147ff"/>
          <path id="Pfad_3720" data-name="Pfad 3720" d="M14.717,13.846l6.577-6.577a1.47,1.47,0,0,1,2.083,0l.694.694,1.247-1.247-.694-.694a3.245,3.245,0,0,0-4.577,0L13.47,12.6Z" transform="translate(0.026 -0.821)" fill="#9147ff"/>
          <path id="Pfad_3721" data-name="Pfad 3721" d="M10.164,7.484l-.694.694,1.247,1.247.694-.694a3.245,3.245,0,0,0,0-4.577l-.694-.694L9.47,4.719l.694.694A1.477,1.477,0,0,1,10.164,7.484Z" transform="translate(-0.681 -1.107)" fill="#9147ff"/>
          <path id="Pfad_3722" data-name="Pfad 3722" d="M17.341,12.022,15.47,13.893l1.247,1.247,1.871-1.871a1.47,1.47,0,0,1,2.083,0l1.894,1.894,1.247-1.247-1.894-1.894A3.245,3.245,0,0,0,17.341,12.022Z" transform="translate(0.379 0.238)" fill="#9147ff"/>
          <path id="Pfad_3723" data-name="Pfad 3723" d="M15.694,6.661,11.47,10.885l1.247,1.247,4.224-4.224a3.245,3.245,0,0,0,0-4.577L15.07,1.46,13.823,2.707l1.871,1.871A1.492,1.492,0,0,1,15.694,6.661Z" transform="translate(-0.328 -1.46)" fill="#9147ff"/>
        </g>
      </g>
    </g>
  </g>
</svg>
