<svg xmlns="http://www.w3.org/2000/svg" width="25.05" height="25.05" viewBox="0 0 25.05 25.05">
  <g id="Gruppe_548" data-name="Gruppe 548" transform="translate(-770 -1214)">
    <g id="Gruppe_424" data-name="Gruppe 424" transform="translate(770 1214)">
      <rect id="Rechteck_393" data-name="Rechteck 393" width="24" height="24" transform="translate(0.525 0.525)" fill="rgba(255,255,255,0)"/>
      <path id="Rechteck_643" data-name="Rechteck 643" d="M2.251,0H22.8A2.251,2.251,0,0,1,25.05,2.251V22.8A2.251,2.251,0,0,1,22.8,25.05H2.251A2.251,2.251,0,0,1,0,22.8V2.251A2.251,2.251,0,0,1,2.251,0Z" fill="rgba(145,71,255,0.21)"/>
    </g>
    <g id="euro_black_24dp_1_" data-name="euro_black_24dp (1)" transform="translate(772.504 1216.5)">
      <g id="Gruppe_746" data-name="Gruppe 746">
        <rect id="Rechteck_614" data-name="Rechteck 614" width="20" height="20" transform="translate(-0.004 -0.004)" fill="none"/>
      </g>
      <g id="Gruppe_747" data-name="Gruppe 747" transform="translate(1.666 2.499)">
        <path id="Pfad_3715" data-name="Pfad 3715" d="M12.829,15.912A5.4,5.4,0,0,1,8.031,13h4.8l.833-1.666H7.481a5.24,5.24,0,0,1,0-1.666h5.348L13.662,8H8.031A5.4,5.4,0,0,1,16.353,6.39l1.474-1.474A7.486,7.486,0,0,0,5.765,8H2.833L2,9.664H5.382a6.967,6.967,0,0,0,0,1.666H2.833L2,13H5.765a7.486,7.486,0,0,0,12.062,3.082L16.344,14.6A5.336,5.336,0,0,1,12.829,15.912Z" transform="translate(-2 -3)" fill="#9147ff"/>
      </g>
    </g>
  </g>
</svg>
