<svg xmlns="http://www.w3.org/2000/svg" width="36.373" height="36.373" viewBox="0 0 36.373 36.373">
  <g id="Gruppe_748" data-name="Gruppe 748" transform="translate(0 0)">
    <g id="Gruppe_424" data-name="Gruppe 424" transform="translate(0 0)">
      <rect id="Rechteck_393" data-name="Rechteck 393" width="34.848" height="34.848" transform="translate(0.762 0.762)" fill="rgba(255,255,255,0)"/>
      <path id="Rechteck_643" data-name="Rechteck 643" d="M3.268,0H33.1a3.268,3.268,0,0,1,3.268,3.268V33.1A3.268,3.268,0,0,1,33.1,36.373H3.268A3.268,3.268,0,0,1,0,33.1V3.268A3.268,3.268,0,0,1,3.268,0Z" fill="rgba(145,71,255,0.21)"/>
    </g>
    <g id="quiz_black_24dp_1_" data-name="quiz_black_24dp (1)" transform="translate(4.922 4.566)">
      <g id="Gruppe_749" data-name="Gruppe 749">
        <path id="Pfad_3716" data-name="Pfad 3716" d="M0,0H27.238V27.238H0Z" fill="none"/>
      </g>
      <g id="Gruppe_751" data-name="Gruppe 751" transform="translate(2.27 2.27)">
        <g id="Gruppe_750" data-name="Gruppe 750">
          <path id="Pfad_3717" data-name="Pfad 3717" d="M4.27,6H2V21.889a2.277,2.277,0,0,0,2.27,2.27H20.159v-2.27H4.27Z" transform="translate(-2 -1.46)" fill="#9147ff"/>
          <path id="Pfad_3718" data-name="Pfad 3718" d="M21.889,2H8.27A2.277,2.277,0,0,0,6,4.27V17.889a2.277,2.277,0,0,0,2.27,2.27H21.889a2.277,2.277,0,0,0,2.27-2.27V4.27A2.277,2.277,0,0,0,21.889,2Zm-6.8,14.754a1.186,1.186,0,1,1,0-2.372,1.158,1.158,0,0,1,1.18,1.18A1.182,1.182,0,0,1,15.091,16.754Zm2.837-7c-.715,1.055-1.4,1.373-1.77,2.054-.148.272-.2.454-.2,1.339H14.228a3.656,3.656,0,0,1,.3-1.873c.465-.828,1.339-1.317,1.85-2.043a1.4,1.4,0,0,0-1.294-2.2,1.8,1.8,0,0,0-1.7,1.4l-1.555-.647A3.378,3.378,0,0,1,15.068,5.4a3.21,3.21,0,0,1,2.849,1.43A2.846,2.846,0,0,1,17.928,9.752Z" transform="translate(-1.46 -2)" fill="#9147ff"/>
        </g>
      </g>
    </g>
  </g>
</svg>
