<svg xmlns="http://www.w3.org/2000/svg" width="25.05" height="25.05" viewBox="0 0 25.05 25.05">
  <g id="Gruppe_548" data-name="Gruppe 548" transform="translate(-770 -1214)">
    <g id="Gruppe_424" data-name="Gruppe 424" transform="translate(770 1214)">
      <rect id="Rechteck_393" data-name="Rechteck 393" width="24" height="24" transform="translate(0.525 0.525)" fill="rgba(255,255,255,0)"/>
      <path id="Rechteck_643" data-name="Rechteck 643" d="M2.251,0H22.8A2.251,2.251,0,0,1,25.05,2.251V22.8A2.251,2.251,0,0,1,22.8,25.05H2.251A2.251,2.251,0,0,1,0,22.8V2.251A2.251,2.251,0,0,1,2.251,0Z" fill="rgba(145,71,255,0.21)"/>
    </g>
    <g id="vpn_lock_black_24dp" transform="translate(772.5 1216.312)">
      <path id="Pfad_3732" data-name="Pfad 3732" d="M0,0H20.228V20.228H0Z" fill="none"/>
      <path id="Pfad_3733" data-name="Pfad 3733" d="M18.7,3.528V3.107a2.107,2.107,0,1,0-4.214,0v.421a.845.845,0,0,0-.843.843V7.743a.845.845,0,0,0,.843.843H18.7a.845.845,0,0,0,.843-.843V4.371A.845.845,0,0,0,18.7,3.528Zm-.674,0H15.16V3.107a1.433,1.433,0,1,1,2.866,0ZM16.1,10.271a6.958,6.958,0,0,1,.067.843,6.707,6.707,0,0,1-1.77,4.543,1.672,1.672,0,0,0-1.6-1.172h-.843V11.957a.845.845,0,0,0-.843-.843H6.057V9.428H7.743a.845.845,0,0,0,.843-.843V6.9h1.686a1.691,1.691,0,0,0,1.686-1.686V3.073a8.429,8.429,0,1,0,5.9,8.041c0-.287-.017-.565-.042-.843ZM8.585,17.8a6.733,6.733,0,0,1-5.9-6.684,6.842,6.842,0,0,1,.177-1.509L6.9,13.642v.843a1.691,1.691,0,0,0,1.686,1.686Z" transform="translate(-0.157 -0.157)" fill="#9147ff"/>
    </g>
  </g>
</svg>
