<svg xmlns="http://www.w3.org/2000/svg" width="25.05" height="25.05" viewBox="0 0 25.05 25.05">
  <g id="Gruppe_548" data-name="Gruppe 548" transform="translate(-770 -1214)">
    <g id="Gruppe_424" data-name="Gruppe 424" transform="translate(770 1214)">
      <rect id="Rechteck_393" data-name="Rechteck 393" width="24" height="24" transform="translate(0.525 0.525)" fill="rgba(255,255,255,0)"/>
      <path id="Rechteck_643" data-name="Rechteck 643" d="M2.251,0H22.8A2.251,2.251,0,0,1,25.05,2.251V22.8A2.251,2.251,0,0,1,22.8,25.05H2.251A2.251,2.251,0,0,1,0,22.8V2.251A2.251,2.251,0,0,1,2.251,0Z" fill="rgba(145,71,255,0.21)"/>
    </g>
    <g id="twitch-seeklogo.com" transform="translate(774.268 1217.94)">
      <path id="Pfad_3646" data-name="Pfad 3646" d="M1.117,0,0,2.978v11.91H4.092v2.234H6.327l2.232-2.234h3.349l4.466-4.465V0ZM2.6,1.488H14.886V9.677L12.28,12.283H8.187L5.956,14.514V12.283H2.6ZM6.7,8.933H8.187V4.467H6.7Zm4.093,0H12.28V4.467H10.792Z" fill="#9147ff"/>
    </g>
  </g>
</svg>
