<svg xmlns="http://www.w3.org/2000/svg" width="36.373" height="36.373" viewBox="0 0 36.373 36.373">
  <g id="Gruppe_633" data-name="Gruppe 633" transform="translate(0 0)">
    <g id="Gruppe_424" data-name="Gruppe 424" transform="translate(0 0)">
      <rect id="Rechteck_393" data-name="Rechteck 393" width="34.848" height="34.848" transform="translate(0.762 0.762)" fill="rgba(255,255,255,0)"/>
      <path id="Rechteck_643" data-name="Rechteck 643" d="M3.268,0H33.1a3.268,3.268,0,0,1,3.268,3.268V33.1A3.268,3.268,0,0,1,33.1,36.373H3.268A3.268,3.268,0,0,1,0,33.1V3.268A3.268,3.268,0,0,1,3.268,0Z" fill="rgba(145,71,255,0.21)"/>
    </g>
    <g id="question_answer_black_24dp" transform="translate(4.922 4.796)">
      <path id="Pfad_3692" data-name="Pfad 3692" d="M0,0H27.238V27.238H0Z" fill="none"/>
      <path id="Pfad_3693" data-name="Pfad 3693" d="M23.564,6.54h-2.27V16.754H6.54v2.27a1.138,1.138,0,0,0,1.135,1.135H20.159L24.7,24.7V7.675A1.138,1.138,0,0,0,23.564,6.54Zm-4.54,6.81V3.135A1.138,1.138,0,0,0,17.889,2H3.135A1.138,1.138,0,0,0,2,3.135V19.024l4.54-4.54H17.889A1.138,1.138,0,0,0,19.024,13.349Z" transform="translate(0.27 0.27)" fill="#9147ff"/>
    </g>
  </g>
</svg>
