<svg xmlns="http://www.w3.org/2000/svg" width="15.363" height="12.485" viewBox="0 0 15.363 12.485">
  <g id="layer1" transform="translate(-540.179 -569.858)">
    <path id="path3611" d="M545.011,582.344a8.907,8.907,0,0,0,8.968-8.968q0-.2-.009-.407a6.412,6.412,0,0,0,1.572-1.632,6.286,6.286,0,0,1-1.81.5,3.163,3.163,0,0,0,1.386-1.743,6.322,6.322,0,0,1-2,.765,3.155,3.155,0,0,0-5.371,2.874,8.949,8.949,0,0,1-6.5-3.293,3.155,3.155,0,0,0,.976,4.208,3.129,3.129,0,0,1-1.427-.394c0,.013,0,.026,0,.04a3.153,3.153,0,0,0,2.529,3.09,3.15,3.15,0,0,1-1.424.054,3.155,3.155,0,0,0,2.944,2.189,6.323,6.323,0,0,1-3.915,1.349,6.389,6.389,0,0,1-.752-.044,8.922,8.922,0,0,0,4.832,1.416" fill="#9c98be"/>
  </g>
</svg>
