<svg xmlns="http://www.w3.org/2000/svg" width="15.362" height="14.983" viewBox="0 0 15.362 14.983">
  <path id="Octicons-mark-github_1_" data-name="Octicons-mark-github (1)" d="M7.681,0A7.682,7.682,0,0,0,5.252,14.969c.384.067.528-.163.528-.365,0-.182-.01-.787-.01-1.431-1.93.355-2.429-.47-2.583-.9A2.793,2.793,0,0,0,2.4,11.186c-.269-.144-.653-.5-.01-.509a1.537,1.537,0,0,1,1.181.787,1.642,1.642,0,0,0,2.237.634,1.616,1.616,0,0,1,.49-1.027C4.59,10.878,2.8,10.216,2.8,7.278a2.989,2.989,0,0,1,.787-2.064,2.76,2.76,0,0,1,.077-2.036s.643-.2,2.112.787a7.242,7.242,0,0,1,3.841,0c1.469-1,2.112-.787,2.112-.787a2.76,2.76,0,0,1,.077,2.036A2.972,2.972,0,0,1,12.6,7.278c0,2.948-1.8,3.6-3.5,3.793a1.819,1.819,0,0,1,.518,1.421c0,1.027-.01,1.853-.01,2.112,0,.2.144.442.528.365A7.685,7.685,0,0,0,7.681,0Z" fill="#9c98be" fill-rule="evenodd"/>
</svg>
