<svg xmlns="http://www.w3.org/2000/svg" width="18" height="18" viewBox="0 0 18 18">
  <g id="alternate_email_black_24dp_1_" data-name="alternate_email_black_24dp (1)">
    <path id="Pfad_3690" data-name="Pfad 3690" d="M0,0H18V18H0Z" fill="none"/>
    <path id="Pfad_3691" data-name="Pfad 3691" d="M9.5,2a7.5,7.5,0,0,0,0,15h3.75V15.5H9.5a6.077,6.077,0,0,1-6-6,6.077,6.077,0,0,1,6-6,6.077,6.077,0,0,1,6,6v1.073a1.212,1.212,0,0,1-1.125,1.177,1.212,1.212,0,0,1-1.125-1.177V9.5a3.751,3.751,0,1,0-1.1,2.648,2.777,2.777,0,0,0,2.22,1.1A2.635,2.635,0,0,0,17,10.573V9.5A7.5,7.5,0,0,0,9.5,2Zm0,9.75A2.25,2.25,0,1,1,11.75,9.5,2.247,2.247,0,0,1,9.5,11.75Z" transform="translate(-0.5 -0.5)" fill="#9c98be"/>
  </g>
</svg>
